<svg width="64" height="97" viewBox="0 0 64 97" fill="none" xmlns="http://www.w3.org/2000/svg">
<path fill-rule="evenodd" clip-rule="evenodd" d="M23.8651 0.672622C18.6271 2.03362 10.3471 7.07062 7.32811 10.7336C1.66711 17.6016 0.0181155 22.4536 0.000115522 32.2976C-0.0178845 42.5646 2.06411 49.9886 8.69611 63.2976C13.0771 72.0896 22.4011 86.1946 27.9041 92.3536L31.4271 96.2976L35.0211 92.2976C45.7631 80.3426 57.9561 57.9966 61.6001 43.5856C66.0921 25.8206 60.6121 11.4386 46.4791 3.90662C40.0181 0.462622 30.1211 -0.953378 23.8651 0.672622ZM39.8341 25.7426C42.4601 28.3696 42.9271 29.5846 42.9271 33.7976C42.9271 38.0676 42.4721 39.2146 39.6581 42.0286C36.8441 44.8426 35.6971 45.2976 31.4271 45.2976C27.1571 45.2976 26.0101 44.8426 23.1961 42.0286C20.3931 39.2256 19.9271 38.0596 19.9271 33.8586C19.9271 28.7186 22.4761 24.6556 26.9271 22.7006C30.6661 21.0586 36.5321 22.4406 39.8341 25.7426Z" fill="black"/>
</svg>
