<svg width="100" height="72" viewBox="0 0 100 72" fill="none" xmlns="http://www.w3.org/2000/svg">
<path fill-rule="evenodd" clip-rule="evenodd" d="M0 2.852C0 5.381 2.767 7.899 24.449 25.102C37.895 35.771 49.425 44.5 50.071 44.5C50.717 44.5 62.198 35.95 75.585 25.5C98.388 7.7 99.928 6.295 99.963 3.25L100 0H50H0V2.852ZM0 41.345V72H50H100V42C100 25.5 99.809 12 99.576 12C99.343 12 88.23 20.564 74.881 31.032C61.531 41.499 50.065 49.855 49.401 49.601C48.401 49.217 7.452 17.066 1.75 12.187C0.089 10.766 0 12.246 0 41.345Z" fill="black"/>
</svg>
