<svg width="225" height="181" viewBox="0 0 225 181" fill="none" xmlns="http://www.w3.org/2000/svg">
<path fill-rule="evenodd" clip-rule="evenodd" d="M210.434 5.54429C202.08 12.5883 196.303 14.4443 187.287 12.9813C173.138 10.6853 165.007 12.4913 153.944 20.3853C150.415 22.9043 147.299 25.3343 147.019 25.7873C146.74 26.2393 148.213 28.2713 150.293 30.3023L154.075 33.9963L158.002 30.8643C160.161 29.1413 164.12 26.6183 166.798 25.2553C171.541 22.8433 172.042 22.7973 185.928 23.4853C199.712 24.1683 200.366 24.1093 205.557 21.7303C211.89 18.8293 222.995 9.87529 223.935 6.91229C224.839 4.06329 221.971 -0.0837139 219.155 0.00128608C217.93 0.0382861 214.006 2.53329 210.434 5.54429ZM89.7899 13.9153C81.5719 16.0703 74.0019 19.6693 67.0889 24.7073L62.2509 28.2343L78.5169 44.5233L94.7819 60.8113L100.16 55.8963C106.566 50.0413 111.753 48.2593 117.837 49.8233L121.928 50.8743L133.928 38.8433L145.928 26.8113L142.428 23.8243C137.843 19.9123 128.417 15.3573 120.968 13.4563C112.852 11.3843 98.6479 11.5933 89.7899 13.9153ZM141.81 46.8563L129.692 58.8813L130.744 62.8223C132.29 68.6173 130.29 74.1423 124.384 80.3873L119.511 85.5403L135.866 101.872L152.22 118.204L155.449 113.819C159.769 107.954 165.014 96.7983 166.896 89.4743C168.685 82.5153 168.9 68.3103 167.331 60.7333C165.984 54.2263 160.526 42.5803 156.739 38.1333L153.928 34.8313L141.81 46.8563ZM32.7949 58.1843C10.3389 80.8743 7.58987 84.5663 2.82787 98.4343C0.483871 105.26 0.0698706 108.121 0.00587063 117.934C-0.0551294 127.502 0.33487 130.665 2.32987 136.762C8.33887 155.119 25.2369 172.018 43.5999 178.034C53.9529 181.425 70.8249 181.461 80.8419 178.113C96.4569 172.893 102.826 168.186 126.679 144.236L144.429 126.412L128.089 110.095L111.748 93.7773L107.988 96.3293C98.2919 102.909 86.8789 99.7303 82.1969 89.1453C79.7029 83.5063 80.2569 78.3013 83.9459 72.7283L86.6349 68.6643L70.7929 52.7993C62.0799 44.0733 54.6979 36.9343 54.3889 36.9343C54.0789 36.9343 44.3619 46.4973 32.7949 58.1843ZM99.7299 68.2363C90.0749 77.8923 89.4279 78.7913 89.4279 82.5623C89.4279 87.8773 92.5369 90.9343 97.9399 90.9343C101.533 90.9343 102.593 90.1643 112.126 80.6323C121.526 71.2323 122.428 70.0023 122.428 66.5863C122.428 63.9453 121.705 62.1203 119.973 60.3893C118.242 58.6573 116.417 57.9343 113.776 57.9343C110.36 57.9343 109.13 58.8363 99.7299 68.2363Z" fill="white"/>
</svg>
