<svg width="250" height="250" viewBox="0 0 250 250" fill="none" xmlns="http://www.w3.org/2000/svg">
<path fill-rule="evenodd" clip-rule="evenodd" d="M3.91808 4.28021C-2.53901 11.571 -1.25782 18.249 9.57575 33.7629C15.0182 41.5591 20.3401 50.8847 21.4009 54.4856C22.4617 58.0864 27.8888 70.0701 33.4618 81.1163C42.799 99.6287 43.3781 101.986 40.867 111.233C32.3318 142.648 43.1449 182.808 60.1383 182.808C67.2411 182.808 68.5556 180.844 71.0667 166.479L73.0166 155.31L78.4078 165.785C81.375 171.547 88.6802 180.974 94.6428 186.736C106.194 197.895 106.058 197.193 92.4161 175.265C87.5938 167.514 81.0727 155.205 77.9235 147.912L72.1967 134.648L67.4538 142.046C64.8454 146.113 62.0755 154.202 61.3017 160.019C59.4183 174.158 55.0444 174.888 49.9633 161.912C44.7336 148.556 44.6055 124.075 49.684 109.358C53.4353 98.4922 53.3533 97.7773 47.2908 88.7345C43.8368 83.5806 37.0645 70.4525 32.2396 59.5608C27.4173 48.6718 19.8456 34.648 15.4179 28.3969C10.9876 22.1484 7.36443 15.4442 7.36443 13.5011C7.36443 6.16053 28.5627 11.3982 40.6748 21.732C42.7888 23.5364 49.9838 25.6053 56.6664 26.3307C80.1656 28.8814 112 50.7145 131.207 77.4552C136.124 84.3008 146.189 103.442 153.574 119.987C171.024 159.084 173.371 162.234 189.301 167.954C202.935 172.848 230.288 190.122 230.288 193.838C230.288 194.972 225.847 195.902 220.42 195.902C212.059 195.902 195.486 199.919 192.147 202.755C190.738 203.952 199.668 217.525 204.472 221.498C206.691 223.334 214.273 227.919 221.32 231.69C228.366 235.462 238.072 241.616 242.887 245.366C250.264 251.112 251.204 251.363 248.862 246.958C244.916 239.539 230.864 226.503 218.117 218.439C212.126 214.65 207.227 210.491 207.227 209.2C207.227 207.906 215.298 205.458 225.163 203.758C235.028 202.059 243.1 199.689 243.1 198.494C243.1 193.629 212.556 168.878 197.405 161.467L181.181 153.527L163.101 115.135C146.374 79.6184 143.466 75.1638 124.238 55.5907C101.179 32.1209 77.2804 17.8221 61.1095 17.8221C55.4544 17.8221 48.946 15.6773 45.0128 12.5138C29.2852 -0.129871 11.0568 -3.78312 3.91808 4.28021ZM55.5107 51.7541C57.9219 56.0464 60.8353 58.4976 62.0524 57.2537C65.6218 53.6056 61.2325 44.0103 55.9951 44.0103C51.37 44.0103 51.3495 44.3403 55.5107 51.7541Z" fill="black"/>
</svg>
