<svg width="69" height="69" viewBox="0 0 69 69" fill="none" xmlns="http://www.w3.org/2000/svg">
<path fill-rule="evenodd" clip-rule="evenodd" d="M7.28402 1.88004C3.63602 4.10404 -0.00898337 10.481 1.66324e-05 14.625C0.0160166 22.995 6.21202 33.273 19.373 46.767C33.519 61.271 45.61 68.942 54.255 68.899C61.399 68.862 71.165 59.576 68.494 55.358C67.944 54.49 63.508 51.474 58.636 48.655L49.778 43.531L44.988 46.223C42.354 47.704 39.711 48.915 39.115 48.915C37.734 48.915 24.566 36.527 21.761 32.588L19.639 29.608L22.473 24.37L25.307 19.131L22.003 13.273C13.814 -1.24596 13.196 -1.72496 7.28402 1.88004Z" fill="black"/>
</svg>
