<svg width="250" height="250" viewBox="0 0 250 250" fill="none" xmlns="http://www.w3.org/2000/svg">
<g clip-path="url(#clip0_0_1)">
<path d="M140.921 1.0182C116.399 -2.13084 91.4945 2.06265 69.3556 13.0684C47.2171 24.0741 28.8394 41.3976 16.5466 62.8482C4.2538 84.2992 -1.40189 108.913 0.294748 133.578C1.99138 158.243 10.9641 181.852 26.0783 201.416C41.1924 220.982 61.7691 235.626 85.2062 243.497C108.643 251.367 133.887 252.111 157.748 245.634C181.607 239.157 203.011 225.75 219.251 207.109C235.491 188.466 245.837 165.428 248.984 140.905C253.202 108.026 244.187 74.817 223.921 48.5835C203.656 22.35 173.801 5.24048 140.921 1.0182Z" fill="black"/>
<path d="M90.3703 132.899C90.4188 132.998 90.5008 133.077 90.6008 133.123C90.7008 133.169 90.8141 133.178 90.9203 133.149L110.92 128.837L102.508 120.312L90.5203 132.299C90.4258 132.363 90.3586 132.459 90.3305 132.57C90.3031 132.681 90.3172 132.798 90.3703 132.899Z" fill="white"/>
<path d="M184.022 47.0258C181.234 47.0286 178.484 47.6566 175.971 48.8634C173.459 50.0702 171.249 51.8251 169.505 53.999C167.76 56.1728 166.526 58.7102 165.892 61.4244C165.258 64.1385 165.241 66.9602 165.841 69.6819C166.443 72.4035 167.647 74.9557 169.364 77.1505C171.082 79.3453 173.27 81.1266 175.768 82.3641C178.266 83.6016 181.009 84.2625 183.796 84.2992C186.583 84.3359 189.342 83.7469 191.872 82.5758L179.197 69.9008C179.052 69.7556 178.936 69.5832 178.857 69.3934C178.778 69.2035 178.738 69.0001 178.738 68.7945C178.738 68.589 178.778 68.3855 178.857 68.1956C178.936 68.0059 179.052 67.8334 179.197 67.6883L195.759 51.1383C192.433 48.4639 188.29 47.0122 184.022 47.0258Z" fill="white"/>
<path d="M198.034 53.2875L182.509 68.75L194.684 80.925C195.58 80.2953 196.417 79.5836 197.184 78.8C200.52 75.4406 202.463 70.9431 202.62 66.2107C202.778 61.4784 201.139 56.8616 198.034 53.2875Z" fill="white"/>
<path d="M166.97 81.8258H166.695C166.373 81.8227 166.05 81.8523 165.733 81.9133H165.62C165.272 81.9883 164.93 82.0883 164.595 82.2133L164.333 82.3383C164.081 82.443 163.839 82.568 163.608 82.7133L163.333 82.8883C163.03 83.0969 162.746 83.3312 162.483 83.5883L116.445 129.637L122.145 135.338L170.895 92.5508C171.171 92.3086 171.422 92.0406 171.645 91.7508L171.858 91.4758C172.024 91.2313 172.175 90.9766 172.308 90.7133C172.383 90.5633 172.445 90.4133 172.508 90.2633C172.592 90.0633 172.663 89.8586 172.72 89.6508C172.72 89.5008 172.808 89.3508 172.845 89.2008C172.907 88.8906 172.949 88.5781 172.97 88.2633V87.8508C172.97 87.6258 172.97 87.4008 172.97 87.1758C172.97 86.9508 172.97 86.8758 172.908 86.7258C172.677 85.5461 172.101 84.4609 171.253 83.6086C170.405 82.757 169.324 82.175 168.145 81.9383H167.908C167.598 81.8781 167.285 81.8406 166.97 81.8258Z" fill="white"/>
<path d="M104.658 118.1L114.108 127.5L160.27 81.3375C161.773 79.8687 163.73 78.9562 165.82 78.75C157.658 72.5 148.758 74.1375 104.658 118.1Z" fill="white"/>
<path d="M173.496 94.3508L172.934 94.9008L124.184 137.676L132.471 145.951C153.021 126.513 171.259 108.001 173.496 94.3508Z" fill="white"/>
<path d="M51.8966 194.562C51.922 194.651 51.974 194.729 52.0455 194.788C52.117 194.845 52.2047 194.88 52.2966 194.887L73.5466 196.349L61.6341 184.437L51.9966 194.062C51.9341 194.127 51.8916 194.209 51.8738 194.297C51.8562 194.386 51.8641 194.477 51.8966 194.562Z" fill="white"/>
<path d="M63.858 182.224L76.4205 194.787C76.5696 194.946 76.7691 195.049 76.9854 195.079C77.2016 195.109 77.4216 195.063 77.608 194.949C77.8027 194.852 77.9579 194.691 78.0468 194.493C78.1359 194.295 78.1531 194.071 78.0955 193.862L75.983 184.837C75.8462 184.252 75.9084 183.638 76.1597 183.092C76.4109 182.547 76.837 182.101 77.3705 181.824C99.3953 170.787 117.158 159.424 130.195 148.074L121.445 139.324L102.695 143.362L63.858 182.224Z" fill="white"/>
<path d="M118.759 136.675L114.059 131.975L107.559 138.462C107.513 138.519 107.487 138.59 107.487 138.662C107.487 138.736 107.513 138.806 107.559 138.863C107.589 138.929 107.643 138.983 107.709 139.012C107.777 139.042 107.852 139.047 107.922 139.025L118.759 136.675Z" fill="white"/>
<path d="M198.471 63.3634C198.407 63.1666 198.302 62.9859 198.162 62.8334C198.023 62.6808 197.852 62.5598 197.661 62.4787C197.471 62.3977 197.266 62.3582 197.059 62.363C196.852 62.368 196.648 62.417 196.462 62.507C196.276 62.597 196.111 62.7259 195.978 62.8848C195.846 63.0439 195.749 63.2294 195.695 63.4289C195.64 63.6284 195.628 63.8373 195.661 64.0416C195.694 64.2459 195.77 64.4409 195.884 64.6134C196.257 65.3652 196.405 66.2089 196.31 67.0428C196.215 67.8768 195.88 68.6654 195.346 69.3134C195.171 69.5251 195.059 69.7823 195.025 70.0549C194.99 70.3276 195.034 70.6045 195.15 70.8534C195.266 71.1024 195.452 71.313 195.684 71.4609C195.915 71.6087 196.184 71.6876 196.459 71.6884C196.671 71.6861 196.88 71.638 197.073 71.5474C197.265 71.4568 197.434 71.3258 197.571 71.1634C198.456 70.0877 199.012 68.7796 199.171 67.396C199.33 66.0125 199.088 64.6123 198.471 63.3634Z" fill="black"/>
</g>
<defs>
<clipPath id="clip0_0_1">
<rect width="250" height="250" fill="white"/>
</clipPath>
</defs>
</svg>
