<svg width="201" height="201" viewBox="0 0 201 201" fill="none" xmlns="http://www.w3.org/2000/svg">
<path fill-rule="evenodd" clip-rule="evenodd" d="M125 41.5L98 28.5L51.5 75L24.5 54.5L12.5 58L40.5 85.5L12.5 113L24.5 117L51.5 96.5L98 140.5L125 129.5V41.5ZM98 109V62L66.5 85.5L98 109Z" fill="black"/>
<path d="M150.5 1L200.5 21.5V179L150.5 200L1 149.5L150.5 172V1Z" fill="black"/>
<path fill-rule="evenodd" clip-rule="evenodd" d="M125 41.5L98 28.5L51.5 75L24.5 54.5L12.5 58L40.5 85.5L12.5 113L24.5 117L51.5 96.5L98 140.5L125 129.5V41.5ZM98 109V62L66.5 85.5L98 109Z" stroke="black"/>
<path d="M150.5 1L200.5 21.5V179L150.5 200L1 149.5L150.5 172V1Z" stroke="black"/>
</svg>
